<svg xmlns="http://www.w3.org/2000/svg" width="46.806" height="62.827" viewBox="0 0 46.806 62.827"><defs><style>.a{fill:none;stroke:#170c3a;stroke-miterlimit:10;stroke-width:2px;}</style></defs><g transform="translate(-499.671 -4143.694)"><path class="a" d="M19.01,38.9,16,61.977l16.054-6.02,16.054,6.02L45.2,38.9M32.054,45.823V55.957" transform="translate(491.02 4143.023)"/><circle class="a" cx="12.04" cy="12.04" r="12.04" transform="translate(511.033 4154.833)"/><path class="a" d="M32.074,4.709,36.689,2.1,39.8,6.314l5.318-.5,1.1,5.217,5.117,1.605-1.1,5.217,3.913,3.612-3.11,4.314,2.107,4.816L48.629,33.3l-.1,5.318-5.217.6L41.1,44.04l-5.017-1.605-4.013,3.512L28.06,42.434,23.043,44.04l-2.207-4.816-5.217-.6-.1-5.318L11,30.595l2.107-4.816L10,21.465l3.913-3.612-1.1-5.217,5.117-1.605,1.1-5.217,5.318.5L27.458,2.1Z" transform="translate(491 4142.9)"/></g></svg>