<svg xmlns="http://www.w3.org/2000/svg" width="61.993" height="61.992" viewBox="0 0 61.993 61.992"><defs><style>.a{fill:none;stroke:#170c3a;stroke-miterlimit:10;stroke-width:2px;}</style></defs><g transform="translate(-926.5 -2710.508)"><path class="a" d="M58.948,47.038,48.539,40.232a4.8,4.8,0,0,0-6.505,1.3c-2.4,2.9-5.3,7.706-16.214-3.2s-6.205-13.912-3.3-16.314a4.8,4.8,0,0,0,1.3-6.505L17.013,5.1c-.9-1.3-2.1-3.4-4.9-3S2,6.6,2,15.611,9.106,35.628,18.814,45.336,39.531,62.05,48.439,62.05,61.65,54.043,61.95,52.042,60.249,47.938,58.948,47.038Z" transform="translate(925.5 2709.45)"/></g></svg>