<svg xmlns="http://www.w3.org/2000/svg" width="62" height="50" viewBox="0 0 62 50"><defs><style>.a{fill:none;stroke:#170c3a;stroke-miterlimit:10;stroke-width:2px;}</style></defs><g transform="translate(-1325 -1186)"><path class="a" d="M6,8H2v4m8-4H20v4h2m4,0h8m4,0h8m4,0h4v8h2" transform="translate(1324 1179)"/><path class="a" d="M62,22V20H60m2,26V38m0-4V26M48,20H40m-4,0H28m-4,0H16m-4,0H10v6m0,4v8m0,4V53a3,3,0,0,1-3,3H5a3,3,0,0,1-3-3V52" transform="translate(1324 1179)"/><path class="a" d="M2,16v8m0,4v8m0,4v8" transform="translate(1324 1179)"/><path class="a" d="M16,56h8m4,0h8m4,0h8m4,0h7a3,3,0,0,0,3-3V50" transform="translate(1324 1179)"/></g></svg>