<svg xmlns="http://www.w3.org/2000/svg" width="62" height="45.848" viewBox="0 0 62 45.848"><defs><style>.a{fill:none;stroke:#170c3a;stroke-miterlimit:10;stroke-width:2px;}</style></defs><g transform="translate(-769 -4152.26)"><circle class="a" cx="3.997" cy="3.997" r="3.997" transform="translate(796.003 4171.187)"/><path class="a" d="M24.584,41.577a11.991,11.991,0,0,1,0-18.786m14.789,0a11.991,11.991,0,0,1,0,18.886m-21.185,6.3a20.985,20.985,0,0,1,0-31.577m27.58,0a20.985,20.985,0,0,1,0,31.677m-33.975,6.3a29.978,29.978,0,0,1,0-44.368m40.371,0a29.978,29.978,0,0,1,0,44.368" transform="translate(768.021 4143)"/></g></svg>