<svg xmlns="http://www.w3.org/2000/svg" width="62.367" height="62.368" viewBox="0 0 62.367 62.368"><defs><style>.a,.b{fill:none;stroke:#170c3a;stroke-miterlimit:10;stroke-width:2px;}.b{stroke-linejoin:round;}</style></defs><g transform="translate(-95.816 -4626.816)"><circle class="a" cx="5" cy="5" r="5" transform="translate(111 4644)"/><circle class="a" cx="5" cy="5" r="5" transform="translate(133 4662)"/><path class="b" d="M46,18,18,46" transform="translate(95 4626)"/><path class="a" d="M32,4.5,38,2l4.5,4.6H49l2.5,5.9L57.4,15v6.5L62,26l-2.5,6L62,38l-4.6,4.5V49l-5.9,2.5L49,57.4H42.5L38,62l-6-2.5L26,62l-4.5-4.6H15l-2.5-5.9L6.6,49V42.5L2,38l2.5-6L2,26l4.6-4.5V15l5.9-2.5L15,6.6h6.5L26,2Z" transform="translate(95 4626)"/></g></svg>