<svg xmlns="http://www.w3.org/2000/svg" width="62" height="59.857" viewBox="0 0 62 59.857"><defs><style>.a{fill:none;stroke:#170c3a;stroke-miterlimit:10;stroke-width:2px;}</style></defs><g transform="translate(-1355.5 -4628.5)"><path class="a" d="M10.429,30.714H8.286a4.286,4.286,0,1,0,0,8.571H31.857a86.786,86.786,0,0,0-2.143,19.286,4.286,4.286,0,0,0,8.571,0S42.571,35,57.571,35H64V9.286H53.286C49,9.286,40.429,5,36.143,5H14.714a4.286,4.286,0,1,0,0,8.571H12.571a4.286,4.286,0,1,0,0,8.571H10.429a4.286,4.286,0,0,0,0,8.571" transform="translate(1352.5 4624.5)"/></g></svg>