<svg xmlns="http://www.w3.org/2000/svg" width="60" height="61.519" viewBox="0 0 60 61.519"><defs><style>.a{fill:none;stroke:#170c3a;stroke-width:2px;}</style></defs><g transform="translate(-1347 -2710.481)"><path class="a" d="M18,2l8.078,13.324M46.039,2,37.961,15.324M10,62c.75-2.076,3.586-7.583,8.143-8.661M54,62c-.748-2.076-3.582-7.583-8.141-8.661M13.986,40H2m60,0H49.986" transform="translate(1345 2709)"/><ellipse class="a" cx="18" cy="24" rx="18" ry="24" transform="translate(1358.986 2723)"/><path class="a" d="M54,16A23.843,23.843,0,0,1,32,30c-10.342,0-18.625-5.994-22-14M32,30V62" transform="translate(1345 2709)"/></g></svg>