<svg xmlns="http://www.w3.org/2000/svg" width="62" height="59.857" viewBox="0 0 62 59.857"><defs><style>.a{fill:none;stroke:#170c3a;stroke-miterlimit:10;stroke-width:2px;}</style></defs><g transform="translate(-246.5 -3678.5)"><path class="a" d="M57.571,37.143h2.143a4.286,4.286,0,0,0,0-8.571H36.143A86.786,86.786,0,0,0,38.286,9.286a4.286,4.286,0,1,0-8.571,0S25.429,32.857,10.429,32.857H4V58.571H14.714c4.286,0,12.857,4.286,17.143,4.286H53.286a4.286,4.286,0,0,0,0-8.571h2.143a4.286,4.286,0,1,0,0-8.571h2.143a4.286,4.286,0,1,0,0-8.571" transform="translate(243.5 3674.5)"/></g></svg>