<svg xmlns="http://www.w3.org/2000/svg" width="62.053" height="62.056" viewBox="0 0 62.053 62.056"><defs><style>.a{fill:none;stroke:#170c3a;stroke-miterlimit:10;stroke-width:2px;}</style></defs><g transform="translate(-95.977 -714.945)"><circle class="a" cx="3.998" cy="3.998" r="3.998" transform="translate(135.283 734.033) rotate(-45)"/><circle class="a" cx="3.998" cy="3.998" r="3.998" transform="translate(121.346 727.992) rotate(-45)"/><circle class="a" cx="2.999" cy="2.999" r="2.999" transform="translate(109.709 733.018) rotate(-45)"/><circle class="a" cx="4.998" cy="4.998" r="4.998" transform="translate(102.854 747.04) rotate(-45)"/><path class="a" d="M18.893,45.982c10.1,0,17.093-3.9,16.093,3.4-.6,4.3-9,.4-9,7.5,0,3.3,3,4.9,7.1,5.1a29.788,29.788,0,0,0,14.194-4.2l.7-.5,1.3-.8A29.988,29.988,0,1,0,2.3,36.086C3.5,42.283,8.9,45.982,18.893,45.982Z" transform="translate(94.986 714.025)"/></g></svg>