<svg xmlns="http://www.w3.org/2000/svg" width="61.414" height="54.295" viewBox="0 0 61.414 54.295"><defs><style>.a{fill:none;stroke:#170c3a;stroke-miterlimit:10;stroke-width:2px;}</style></defs><g transform="translate(-1048 -3194.293)"><path class="a" d="M53,22.271l8.136-8.136L53,6m0,52.881,8.136-8.136L53,42.61" transform="translate(1046.864 3189)"/><path class="a" d="M32.61,27.525l6.915-9.458M23.356,32.305a11.492,11.492,0,0,0,9.254-4.78m6.915-9.458A11.186,11.186,0,0,1,48.169,14H62M32.61,37.085l6.915,9.458M2,32.305H23.356a11.593,11.593,0,0,1,9.356,4.78m6.814,9.458a11.186,11.186,0,0,0,8.644,4.068H62" transform="translate(1046 3189.135)"/></g></svg>