<svg xmlns="http://www.w3.org/2000/svg" width="58" height="62" viewBox="0 0 58 62"><defs><style>.a{fill:none;stroke:#170c3a;stroke-miterlimit:10;stroke-width:2px;}</style></defs><g transform="translate(-789 -4627)"><path class="a" d="M12,26V22C12,11,20,2,31,2h2c11,0,19,9,19,20v4M40,58a4,4,0,0,0-4-4H32a4,4,0,0,0,0,8h4A4,4,0,0,0,40,58Zm0,0s12,0,12-14" transform="translate(786 4626)"/><path class="a" d="M16,44H7.6A3.6,3.6,0,0,1,4,40.4V29.6A3.6,3.6,0,0,1,7.6,26H16Zm32,0h8.4A3.6,3.6,0,0,0,60,40.4V29.6A3.6,3.6,0,0,0,56.4,26H48Z" transform="translate(786 4626)"/></g></svg>