<svg xmlns="http://www.w3.org/2000/svg" width="62" height="58" viewBox="0 0 62 58"><defs><style>.a{fill:none;stroke:#170c3a;stroke-miterlimit:10;stroke-width:2px;}</style></defs><g transform="translate(-1621 -4146)"><circle class="a" cx="7" cy="7" r="7" transform="translate(1645 4175)"/><path class="a" d="M32,46A12.1,12.1,0,0,0,20,58v2H44V58A12.1,12.1,0,0,0,32,46Z" transform="translate(1620 4143)"/><circle class="a" cx="6" cy="6" r="6" transform="translate(1666 4147)"/><path class="a" d="M62,28c0-7.5-4.5-12-10-12S42,20.5,42,28Z" transform="translate(1620 4143)"/><circle class="a" cx="6" cy="6" r="6" transform="translate(1626 4147)"/><path class="a" d="M22,28c0-7.5-4.5-12-10-12S2,20.5,2,28Z" transform="translate(1620 4143)"/><path class="a" d="M12,34l8,8m32-8-8,8M24,14H40" transform="translate(1620 4143)"/></g></svg>