<svg xmlns="http://www.w3.org/2000/svg" width="52.774" height="62" viewBox="0 0 52.774 62"><defs><style>.a{fill:none;stroke:#170c3a;stroke-miterlimit:10;stroke-width:2px;}</style></defs><g transform="translate(-1331.997 -3190)"><path class="a" d="M35.348,2c-14.023,0-24.04,5.209-24.04,16.027V28.043A20.033,20.033,0,0,1,7.3,36.057c-.9.9-1.2,2.5.9,3.105s2.5.4,2.7,1.7-.6,2.8.6,3.205.1,1.7,1.3,2.7-1,5.209,3.406,5.209h4.708c2.3,0,2.4,1.7,2.4,4.007s-2,6.01-2,6.01H49.371s-4.007-4.107-4.007-8.013c0-6.01,12.02-15.526,12.02-32.053S45.365,2,35.348,2Z" transform="translate(1326.387 3189)"/><path class="a" d="M34.709,16,29.3,24.013H39.317l-5.008,7.412" transform="translate(1326.425 3189.023)"/><path class="a" d="M43.14,14.207a11.018,11.018,0,0,0-17.229-.1,8.013,8.013,0,0,0,1.4,15.927h.7a10.918,10.918,0,0,0,12.922,0h.4a8.013,8.013,0,0,0,1.8-15.826Z" transform="translate(1326.408 3189.013)"/></g></svg>