<svg xmlns="http://www.w3.org/2000/svg" width="62" height="53" viewBox="0 0 62 53"><defs><style>.a{fill:none;stroke:#170c3a;stroke-miterlimit:10;stroke-width:2px;}</style></defs><g transform="translate(-1592 -3194)"><path class="a" d="M24,51.9a8,8,0,0,1,8,8v-44a8,8,0,0,0-8-8H2v44Zm8-36a8,8,0,0,1,8-8H62v44H40a8,8,0,0,0-8,8" transform="translate(1591 3187.1)"/><path class="a" d="M10,17.9H24m-14,8H24m-14,8H24m-14,8H24m16-24H54m-14,8H54m-14,8H54m-14,8H54" transform="translate(1591 3187.1)"/></g></svg>