<svg xmlns="http://www.w3.org/2000/svg" width="54" height="62" viewBox="0 0 54 62"><defs><style>.a{fill:none;stroke:#170c3a;stroke-miterlimit:10;stroke-width:2px;}</style></defs><g transform="translate(-1212 -2710)"><path class="a" d="M32,38V48c0,4-6,8-10,8H19a3,3,0,0,0-3,3v3H48V59a3,3,0,0,0-3-3H42c-4,0-10-4-10-8" transform="translate(1207 2709)"/><path class="a" d="M48,22.1a16,16,0,0,1-32,0V2H48Z" transform="translate(1207 2709)"/><path class="a" d="M16,7.9c-6-1.1-10,2.5-10,8S10.5,28,16,28h1.1M48,7.9c6-1.1,10,2.5,10,8S53.5,28,48,28H46.9" transform="translate(1207 2709)"/></g></svg>