<svg xmlns="http://www.w3.org/2000/svg" width="61.414" height="48.194" viewBox="0 0 61.414 48.194"><defs><style>.a{fill:none;stroke:#170c3a;stroke-miterlimit:10;stroke-width:2px;}</style></defs><g transform="translate(-1337 -4151.293)"><path class="a" d="M53,24.271l8.136-8.136L53,8" transform="translate(1335.864 4144)"/><path class="a" d="M53,54.271l8.136-8.136L53,38" transform="translate(1335.864 4144.508)"/><path class="a" d="M62,16H47.763c-4.068,0-7.119,1.017-9.153,4.068L22.339,42.441c-3.051,4.068-5.085,4.068-9.153,4.068H2" transform="translate(1335 4144.136)"/><path class="a" d="M27.525,27.186l-5.186-7.119C19.288,16,17.254,16,13.186,16H2M62,46.508H47.763c-4.068,0-7.119-1.017-9.153-4.068l-5.085-6.1" transform="translate(1335 4144.136)"/></g></svg>